<svg xmlns="http://www.w3.org/2000/svg" version="1.1" xmlns:xlink="http://www.w3.org/1999/xlink" xmlns:svgjs="http://svgjs.dev/svgjs" width="1000" height="515" viewBox="0 0 1000 515"><g transform="matrix(1,0,0,1,-0.6060606060606233,0.3680823139026188)"><svg viewBox="0 0 396 204" data-background-color="#ffffff" preserveAspectRatio="xMidYMid meet" height="515" width="1000" xmlns="http://www.w3.org/2000/svg" xmlns:xlink="http://www.w3.org/1999/xlink"><defs></defs><g id="tight-bounds" transform="matrix(1,0,0,1,0.2400000000000091,-0.14579762145115183)"><svg viewBox="0 0 395.52 204.29160087161006" height="204.29160087161006" width="395.52"><g><svg viewBox="0 0 397.4975999999999 205.31305887596807" height="204.29160087161006" width="395.52"><g><rect width="397.4975999999999" height="3.7611671469216175" x="0" y="110.31991477930771" fill="#0023ff" opacity="1" stroke-width="0" stroke="transparent" fill-opacity="1" class="rect-o-0" data-fill-palette-color="primary" rx="1%" id="o-0" data-palette-color="#0023ff"></rect></g><g><rect width="397.4975999999999" height="3.7611671469216175" x="0" y="119.0040755740325" fill="#0023ff" opacity="1" stroke-width="0" stroke="transparent" fill-opacity="1" class="rect-o-1" data-fill-palette-color="primary" rx="1%" id="o-1" data-palette-color="#0023ff"></rect></g><g transform="matrix(1,0,0,1,0.9887999999999693,132.61123001656046)"><svg viewBox="0 0 395.52 72.70182885940764" height="72.70182885940764" width="395.52"><g><svg viewBox="0 0 395.52 72.70182885940764" height="72.70182885940764" width="395.52"><g><svg viewBox="0 0 395.52 41.706854130052726" height="41.706854130052726" width="395.52"><g transform="matrix(1,0,0,1,0,0)"><svg width="395.52" viewBox="2.5 -33.75 426.70001220703125 45" height="41.706854130052726" data-palette-color="#0023ff"><path d="M10.75-31.7Q17.55-31.7 21.53-29.83 25.5-27.95 27.55-25.65L27.55-25.65Q29.2-23.75 30.25-21.28 31.3-18.8 31.3-15.35L31.3-15.35Q31.3-12.8 30.15-10.03 29-7.25 27.15-5.55L27.15-5.55Q25.2-3.7 23.48-2.55 21.75-1.4 18.82-0.68 15.9 0.05 11.4 0.05L11.4 0.05Q8 0.05 5.25-0.73 2.5-1.5 2.5-3.35L2.5-3.35Q2.5-4.1 3.18-4.53 3.85-4.95 4.65-4.95L4.65-4.95Q5.1-4.95 5.25-4.9L5.25-4.9Q5.6-8.2 5.6-11.9L5.6-11.9Q5.6-16.05 5.4-18.78 5.2-21.5 4.85-24.2L4.85-24.2Q4.8-24.55 4.63-26.15 4.45-27.75 4.45-29.4L4.45-29.4Q4.45-30.45 5.5-31.18 6.55-31.9 7.65-31.9L7.65-31.9Q8.3-31.9 9.4-31.8L9.4-31.8Q10.3-31.7 10.75-31.7L10.75-31.7ZM10.1-4.65Q11.3-4.45 13.25-4.45L13.25-4.45Q16.55-4.45 19.5-5.83 22.45-7.2 24.25-9.68 26.05-12.15 26.05-15.4L26.05-15.4Q26.05-18.8 24.85-21.2 23.65-23.6 21.15-25.15L21.15-25.15Q19.3-26.3 16.6-26.83 13.9-27.35 10.1-27.35L10.1-27.35Q10.1-26.15 10.25-24.35L10.25-24.35Q10.25-23.75 10.35-22.25L10.35-22.25Q10.65-16.45 10.65-12.9L10.65-12.9Q10.65-7.75 10.1-4.65L10.1-4.65ZM38.3-32.1Q40.05-31.95 41.35-31.18 42.65-30.4 42.65-28.85L42.65-28.85Q42.65-27.7 41.57-27.03 40.5-26.35 39-26.35L39-26.35Q37.55-26.35 37-27.1 36.45-27.85 36.45-28.65L36.45-28.65Q36.45-30.15 36.77-31.15 37.1-32.15 38.3-32.1L38.3-32.1ZM42.3-18.95L42.3-9.95 42.3-8.5Q42.3-6.55 42.42-4.83 42.55-3.1 42.75-1.35L42.75-1.35Q42.7-0.85 42-0.33 41.3 0.2 40.75 0.2L40.75 0.2Q39.8 0.2 38.82-0.18 37.85-0.55 37.65-1.1L37.65-1.1Q37.35-2.7 37.35-3.95L37.35-3.95Q37.35-8.05 37.1-13.15L37.1-13.15Q36.9-17.65 36.9-19.45L36.9-19.45Q36.9-20.35 37.8-21 38.7-21.65 39.7-21.65L39.7-21.65Q41.15-21.65 41.72-21 42.3-20.35 42.3-18.95L42.3-18.95ZM66.6-0.1Q67.95 0.85 68.42 2 68.9 3.15 68.9 5.2L68.9 5.2Q68.9 6.2 68.32 7.2 67.75 8.2 67.15 8.65L67.15 8.65Q62.4 11.25 57.65 11.25L57.65 11.25Q55.3 11.25 53.6 10.65 51.9 10.05 50.4 9.05L50.4 9.05Q49.4 8.3 48.77 6.98 48.15 5.65 48.15 4.35L48.15 4.35Q48.15 2.55 49.27 1.2 50.4-0.15 52.3-0.75L52.3-0.75Q51.95-1.5 51.95-2.5L51.95-2.5Q51.95-3.45 53.35-5.35L53.35-5.35Q50.95-6.15 49.57-8.2 48.2-10.25 48.2-13L48.2-13Q48.2-14.7 49-16.03 49.8-17.35 51.4-19.1L51.4-19.1Q52.5-20.3 54.2-20.85 55.9-21.4 58.45-21.4L58.45-21.4Q60.25-21.4 62.9-20.6L62.9-20.6Q66.05-22.8 68.45-22.8L68.45-22.8Q69.05-22.8 69.82-22.5 70.6-22.2 71-21.9L71-21.9Q71.3-21.35 71.3-20.05L71.3-20.05Q71.3-19.55 70.87-19.07 70.45-18.6 69.8-18.6L69.8-18.6 68.6-18.65Q67.7-18.75 67.2-18.75L67.2-18.75Q66.65-18.75 65.55-18.65L65.55-18.65Q66.6-17.4 67.17-16 67.75-14.6 67.75-12.35L67.75-12.35Q67.75-10.65 66.5-8.8 65.25-6.95 63.55-5.9L63.55-5.9Q60.95-4.5 57.5-4.45L57.5-4.45Q57.1-4.05 56.82-3.73 56.55-3.4 56.55-3.2L56.55-3.2Q56.55-2.65 57.5-2.35 58.45-2.05 60.4-1.9L60.4-1.9Q61.9-1.8 63.72-1.28 65.55-0.75 66.6-0.1L66.6-0.1ZM57.8-8.55Q60.1-8.55 61.5-9.8 62.9-11.05 62.9-13.35L62.9-13.35Q62.9-15.1 61.65-16.2 60.4-17.3 58.45-17.3L58.45-17.3Q57.2-17.3 55.77-16.88 54.35-16.45 53.75-15.55L53.75-15.55Q53.45-15.15 53.15-14.03 52.85-12.9 52.85-12.3L52.85-12.3Q52.85-11.45 53.57-10.58 54.3-9.7 55.47-9.13 56.65-8.55 57.8-8.55L57.8-8.55ZM60.95 2.3Q58.2 2.05 57.07 1.83 55.95 1.6 55.25 1.3L55.25 1.3Q52.7 2.65 52.7 4.25L52.7 4.25Q52.7 5.75 54.25 6.53 55.8 7.3 57.8 7.3L57.8 7.3Q58.7 7.3 60.25 7.1 61.8 6.9 62.85 6.4L62.85 6.4Q63.55 6.05 63.9 5.73 64.25 5.4 64.25 4.55L64.25 4.55Q64.25 3.5 63.15 2.95 62.05 2.4 60.95 2.3L60.95 2.3ZM76.74-32.1Q78.49-31.95 79.79-31.18 81.09-30.4 81.09-28.85L81.09-28.85Q81.09-27.7 80.02-27.03 78.94-26.35 77.44-26.35L77.44-26.35Q75.99-26.35 75.44-27.1 74.89-27.85 74.89-28.65L74.89-28.65Q74.89-30.15 75.22-31.15 75.54-32.15 76.74-32.1L76.74-32.1ZM80.74-18.95L80.74-9.95 80.74-8.5Q80.74-6.55 80.87-4.83 80.99-3.1 81.19-1.35L81.19-1.35Q81.14-0.85 80.44-0.33 79.74 0.2 79.19 0.2L79.19 0.2Q78.24 0.2 77.27-0.18 76.29-0.55 76.09-1.1L76.09-1.1Q75.79-2.7 75.79-3.95L75.79-3.95Q75.79-8.05 75.54-13.15L75.54-13.15Q75.34-17.65 75.34-19.45L75.34-19.45Q75.34-20.35 76.24-21 77.14-21.65 78.14-21.65L78.14-21.65Q79.59-21.65 80.17-21 80.74-20.35 80.74-18.95L80.74-18.95ZM89.39-17.1L86.99-17.3Q86.29-17.4 85.87-17.9 85.44-18.4 85.44-19.1L85.44-19.1Q85.44-19.45 85.62-19.85 85.79-20.25 86.14-20.55L86.14-20.55Q86.79-21.2 89.64-21.2L89.64-21.2Q90.04-23.15 90.04-25.15L90.04-25.15Q90.04-25.9 89.99-26.45 89.94-27 89.94-27.3L89.94-27.3Q89.94-28.4 90.77-28.95 91.59-29.5 92.64-29.5L92.64-29.5Q93.94-29.5 94.42-28.85 94.89-28.2 94.89-26.45L94.89-26.45Q94.89-23.85 94.44-21.35L94.44-21.35Q95.24-21.35 96.64-21.45L96.64-21.45Q98.54-21.55 99.39-21.55L99.39-21.55Q100.24-21.55 100.87-21.13 101.49-20.7 101.49-19.95L101.49-19.95Q101.49-18 99.74-17.65L99.74-17.65Q97.89-17.2 93.99-17.1L93.99-17.1Q93.84-15.15 93.84-12.85L93.84-12.85Q93.84-9.25 94.29-6.95L94.29-6.95Q94.59-5.35 95.32-4.63 96.04-3.9 97.49-3.9L97.49-3.9Q98.34-3.9 99.24-4.35L99.24-4.35Q99.84-4.7 100.34-4.7L100.34-4.7Q101.04-4.7 101.37-4.25 101.69-3.8 101.69-3.05L101.69-3.05Q101.69-1.65 100.19-0.73 98.69 0.2 96.34 0.2L96.34 0.2Q94.89 0.2 93.42-0.5 91.94-1.2 90.94-2.25L90.94-2.25Q90.79-2.4 90.39-3.4 89.99-4.4 89.69-5.55L89.69-5.55Q89.19-7.9 89.19-12.15L89.19-12.15Q89.19-14 89.39-17.1L89.39-17.1ZM109.64 0.2Q108.64 0.2 107.94-0.15 107.24-0.5 107.09-0.9L107.09-0.9Q106.54-2.9 106.54-6.15L106.54-6.15Q106.54-12.15 106.74-15.9L106.74-15.9Q106.94-20.35 106.94-24.45L106.94-24.45Q106.94-25.65 106.64-27.95L106.64-27.95Q106.59-28.35 106.49-29.4 106.39-30.45 106.39-31.35L106.39-31.35Q106.39-32.45 107.16-33.1 107.94-33.75 109.19-33.75L109.19-33.75Q110.19-33.75 110.81-33.13 111.44-32.5 111.44-31.45L111.44-31.45Q111.44-29.85 111.54-26.95L111.54-26.95Q111.64-24.25 111.64-22.9L111.64-22.9Q111.64-21.4 111.54-18.9L111.54-18.9Q111.44-17.4 111.44-16.7L111.44-16.7Q111.44-14.5 111.49-13.05L111.49-13.05Q113.34-14.9 116.34-17.4 119.34-19.9 120.99-20.9L120.99-20.9Q122.74-21.95 123.29-21.95L123.29-21.95Q124.34-21.95 125.09-21.5 125.84-21.05 125.84-20.2L125.84-20.2Q125.84-19.35 125.59-18.85 125.34-18.35 124.69-17.85L124.69-17.85 118.24-13.15Q119.34-12.6 120.11-11.75 120.89-10.9 121.69-9.65L121.69-9.65Q123.39-6.85 124.41-5.55 125.44-4.25 126.29-4.25L126.29-4.25 127.54-4.3Q127.89-4.3 128.16-3.9 128.44-3.5 128.44-2.75L128.44-2.75Q128.44-1.6 127.31-0.9 126.19-0.2 124.79-0.2L124.79-0.2Q122.84-0.2 121.34-1.73 119.84-3.25 118.49-5.85L118.49-5.85Q116.54-9.55 114.64-10.25L114.64-10.25 111.44-7.65 111.64-2.2Q111.64-0.9 110.96-0.35 110.29 0.2 109.64 0.2L109.64 0.2ZM154.39-2.4Q154.39-1.3 153.21-0.55 152.04 0.2 151.04 0.2L151.04 0.2Q149.14 0.2 148.01-0.28 146.89-0.75 145.94-2.05L145.94-2.05Q144.64-0.9 142.39-0.33 140.14 0.25 138.24 0.25L138.24 0.25Q135.14 0.25 133.14-1.43 131.14-3.1 131.14-6.35L131.14-6.35Q131.14-7.75 131.89-8.93 132.64-10.1 133.94-11L133.94-11Q135.39-11.95 137.24-12.48 139.09-13 141.09-13L141.09-13Q142.14-13 143.59-12.6 145.04-12.2 145.84-11.75L145.84-11.75 145.84-12.55Q145.84-15.25 144.54-16.28 143.24-17.3 140.34-17.3L140.34-17.3Q139.49-17.3 138.66-16.95 137.84-16.6 136.79-16L136.79-16Q135.39-15.25 134.14-15.25L134.14-15.25Q133.69-15.25 133.29-15.88 132.89-16.5 132.89-17L132.89-17Q132.89-18.45 134.26-19.5 135.64-20.55 137.54-21.08 139.44-21.6 140.94-21.6L140.94-21.6Q142.44-21.6 144.39-21.03 146.34-20.45 147.59-19.45L147.59-19.45Q149.09-18.15 149.91-16.43 150.74-14.7 150.74-12.65L150.74-12.65Q150.74-12 150.64-10.7L150.64-10.7Q150.54-9.3 150.54-8.3L150.54-8.3Q150.54-7.85 150.44-6.95L150.44-6.95Q150.34-5.85 150.34-5.2L150.34-5.2Q150.34-4.6 150.79-4.17 151.24-3.75 151.84-3.75L151.84-3.75 153.24-3.8Q153.79-3.8 154.09-3.4 154.39-3 154.39-2.4L154.39-2.4ZM138.29-3.7Q140.44-3.7 141.89-4.15 143.34-4.6 145.39-5.8L145.39-5.8Q145.59-6.65 145.64-8.05L145.64-8.05Q142.89-9.35 141.09-9.35L141.09-9.35Q139.04-9.35 137.44-8.6 135.84-7.85 135.84-5.95L135.84-5.95Q135.84-5 136.64-4.35 137.44-3.7 138.29-3.7L138.29-3.7ZM156.73-16.85Q156.33-16.85 156.01-17.18 155.68-17.5 155.68-17.95L155.68-17.95Q155.68-19.1 156.68-20.1L156.68-20.1Q156.98-20.25 157.88-20.6 158.78-20.95 159.48-20.95L159.48-20.95Q161.38-20.95 162.58-19.93 163.78-18.9 163.78-17L163.78-17Q163.78-16.45 163.58-14.65L163.58-14.65Q163.38-12.55 163.38-11.4L163.38-11.4Q163.38-7.9 164.33-5.75L164.33-5.75Q164.68-5.05 165.43-4.65 166.18-4.25 166.78-4.25L166.78-4.25Q168.23-4.25 169.13-4.75 170.03-5.25 171.08-6.35L171.08-6.35Q172.13-7.45 172.46-8.85 172.78-10.25 172.93-12.7L172.93-12.7Q173.03-14.3 173.13-15.05L173.13-15.05Q173.38-17.45 173.38-19.15L173.38-19.15Q173.38-20.25 173.98-20.98 174.58-21.7 175.63-21.7L175.63-21.7Q176.23-21.7 177.01-21.33 177.78-20.95 178.03-20.45L178.03-20.45Q178.33-19.95 178.33-18.8L178.33-18.8Q178.33-18.2 178.18-17.65L178.18-17.65Q177.83-16.4 177.83-14.65L177.83-14.65 177.88-12.05Q177.88-8.5 178.38-6.8L178.38-6.8Q178.63-6 179.08-5.18 179.53-4.35 179.93-3.8L179.93-3.8Q180.93-2.7 181.23-2.27 181.53-1.85 181.53-1.45L181.53-1.45Q181.53-0.85 180.96-0.33 180.38 0.2 179.73 0.2L179.73 0.2Q177.88 0.2 176.53-1.05 175.18-2.3 174.53-4.3L174.53-4.3Q172.83-2.35 171.38-1.15L171.38-1.15Q170.38-0.45 168.93-0.13 167.48 0.2 166.03 0.2L166.03 0.2Q164.08 0.2 162.08-1.4 160.08-3 159.38-5.1L159.38-5.1Q159.33-5.2 159.11-5.9 158.88-6.6 158.88-8L158.88-8Q158.88-9.85 159.08-12.65L159.08-12.65Q159.23-14.45 159.23-15.95L159.23-15.95Q159.23-16.4 158.91-16.7 158.58-17 158.18-17L158.18-17Q157.88-17 157.51-16.93 157.13-16.85 156.73-16.85L156.73-16.85ZM221.93-27.75Q222.68-26.85 222.98-26.3 223.28-25.75 223.28-25.25L223.28-25.25Q223.28-24.65 222.5-23.85 221.73-23.05 220.98-23.05L220.98-23.05Q219.98-23.05 219.38-23.35 218.78-23.65 218.38-24.3L218.38-24.3Q217.58-25.5 216.43-26.38 215.28-27.25 212.83-27.25L212.83-27.25Q210.73-27.25 208.05-26.3 205.38-25.35 204.23-23.95L204.23-23.95Q203.23-22.7 202.5-20.15 201.78-17.6 201.78-15.2L201.78-15.2Q201.78-12.3 203.05-9.88 204.33-7.45 206.75-6 209.18-4.55 212.58-4.55L212.58-4.55Q214.43-4.55 216.4-5.28 218.38-6 219.83-7.65L219.83-7.65 219.78-7.65Q220.68-8.6 222.03-8.6L222.03-8.6Q222.83-8.6 223.55-7.9 224.28-7.2 224.28-6.5L224.28-6.5Q224.28-5.75 224.05-5.18 223.83-4.6 223.23-3.9L223.23-3.9Q221.18-1.6 218.38-0.75 215.58 0.1 211.68 0.1L211.68 0.1Q208.23 0.1 204.7-1.55 201.18-3.2 199.28-5.55L199.28-5.55Q198.28-7 197.35-9.73 196.43-12.45 196.43-14.15L196.43-14.15Q196.43-18.5 197.75-22.43 199.08-26.35 201.73-28.7L201.73-28.7Q203.48-30.3 206.78-31.1 210.08-31.9 212.83-31.9L212.83-31.9Q216.18-31.9 218.1-30.98 220.03-30.05 221.93-27.75L221.93-27.75ZM248.53-16.05Q248.93-15.35 249.18-14.03 249.43-12.7 249.43-11.65L249.43-11.65Q249.43-9.7 248.58-6.1L248.58-6.1Q245.13 0.2 238.38 0.2L238.38 0.2Q235.88 0.2 233.28-1.45 230.68-3.1 229.68-5.25L229.68-5.25Q228.33-9.55 228.33-10.7L228.33-10.7Q228.33-12.7 229.2-14.95 230.08-17.2 231.43-18.85L231.43-18.85Q232.28-20 234.48-20.83 236.68-21.65 238.48-21.65L238.48-21.65Q241.98-21.65 244.43-20.33 246.88-19 248.53-16.05L248.53-16.05ZM244.18-8Q244.43-8.65 244.43-11.35L244.43-11.35Q244.43-12.8 243.9-14.2 243.38-15.6 242.38-16.6L242.38-16.6Q242.28-16.7 241.83-16.93 241.38-17.15 240.6-17.38 239.83-17.6 238.83-17.6L238.83-17.6Q236.03-17.6 234.73-15.35 233.43-13.1 233.43-10.25L233.43-10.25Q233.43-9.75 233.7-8.35 233.98-6.95 234.18-6.6L234.18-6.6Q234.33-6.25 234.95-5.63 235.58-5 236.5-4.53 237.43-4.05 238.43-4.05L238.43-4.05Q240.68-4.05 242.03-5.13 243.38-6.2 244.18-8L244.18-8ZM277.12-3.85Q277.37-3.75 277.92-3.6 278.47-3.45 278.72-3.3 278.97-3.15 278.97-2.85L278.97-2.85Q279.02-1.65 278.1-0.88 277.17-0.1 275.92-0.1L275.92-0.1Q273.97-0.1 272.87-1.15 271.77-2.2 271.27-4.35L271.27-4.35Q271.07-5.2 271.07-6.7L271.07-6.7Q271.07-7.55 271.17-9.45L271.17-9.45Q271.27-11.45 271.27-12.65L271.27-12.65Q271.27-14.4 270.3-15.73 269.32-17.05 267.57-17.05L267.57-17.05Q266.52-17.05 265.37-16.43 264.22-15.8 263.77-14.9L263.77-14.9Q263.02-13.45 262.72-11.75L262.72-11.75Q262.17-8.75 262.17-5.5L262.17-5.5Q262.17-3.95 262.22-3.1L262.22-3.1Q262.22-2.9 262.25-2.33 262.27-1.75 262.15-1.28 262.02-0.8 261.72-0.4L261.72-0.4Q261.47-0.15 260.95 0.03 260.42 0.2 259.97 0.2L259.97 0.2Q259.27 0.2 258.22-0.4 257.17-1 257.02-1.75L257.02-1.75 256.97-2.6Q256.97-3.05 257.07-3.65L257.07-3.65Q257.67-7.15 257.67-9.75L257.67-9.75Q257.67-10.9 257.62-11.55L257.62-11.55 257.57-13.9Q257.57-15.1 256.97-16.23 256.37-17.35 255.57-17.35L255.57-17.35Q255.32-17.35 254.87-17.18 254.42-17 254.12-17L254.12-17Q253.62-17 253.05-17.5 252.47-18 252.47-18.55L252.47-18.55Q252.47-19.6 253.17-20.25L253.17-20.25Q253.92-20.85 254.65-21.2 255.37-21.55 256.32-21.55L256.32-21.55Q257.12-21.55 257.62-21.4 258.12-21.25 258.97-20.75L258.97-20.75Q259.42-20.5 260.02-19.65 260.62-18.8 261.02-17.25L261.02-17.25Q262.32-19.65 264.25-20.63 266.17-21.6 269.17-21.6L269.17-21.6Q270.32-21.6 271.65-20.85 272.97-20.1 273.92-19.1L273.92-19.1Q274.82-18 275.42-16.38 276.02-14.75 276.02-13.45L276.02-13.45Q276.02-12.7 275.92-11L275.92-11Q275.77-9.65 275.77-8.15L275.77-8.15Q275.77-4.65 277.12-3.85L277.12-3.85ZM296.57-11.25Q296.97-11 298.15-10.33 299.32-9.65 299.72-8.75 300.12-7.85 300.12-6.25L300.12-6.25Q300.12-4.45 299.07-3.08 298.02-1.7 296.37-0.95L296.37-0.95Q295.17-0.4 293.44-0.1 291.72 0.2 290.72 0.2L290.72 0.2Q289.72 0.2 288.15-0.1 286.57-0.4 285.97-0.65L285.97-0.65Q284.42-1.55 283.3-2.85 282.17-4.15 282.17-5.5L282.17-5.5Q282.17-6.5 282.82-7.08 283.47-7.65 284.52-7.65L284.52-7.65Q285.02-7.65 285.57-7.28 286.12-6.9 286.32-6.5L286.32-6.5Q286.87-5.2 288.17-4.55 289.47-3.9 290.82-3.9L290.82-3.9Q292.57-3.9 294.07-4.48 295.57-5.05 295.57-6.05L295.57-6.05Q295.57-6.5 295.35-6.78 295.12-7.05 294.72-7.35L294.72-7.35Q294.02-7.85 292.62-8.18 291.22-8.5 290.82-8.6L290.82-8.6Q288.77-9.05 286.82-9.95L286.82-9.95Q284.87-10.9 283.72-12.2 282.57-13.5 282.57-15.55L282.57-15.55Q282.57-16.9 283.57-18.38 284.57-19.85 285.82-20.45L285.82-20.45Q286.72-20.8 288.85-21.2 290.97-21.6 291.72-21.6L291.72-21.6Q292.87-21.6 294.22-21.38 295.57-21.15 296.27-20.65L296.27-20.65Q297.62-19.85 298.47-18.98 299.32-18.1 299.32-17L299.32-17Q299.32-16.45 299.07-15.83 298.82-15.2 298.47-15.05L298.47-15.05Q297.72-14.7 296.72-14.7L296.72-14.7Q296.27-14.7 296-14.95 295.72-15.2 295.27-15.75L295.27-15.75Q294.72-16.6 294.22-16.75L294.22-16.75Q293.62-16.9 292.47-17.13 291.32-17.35 290.92-17.35L290.92-17.35Q289.77-17.35 288.55-16.7 287.32-16.05 287.32-15.2L287.32-15.2Q287.32-14.75 287.69-14.5 288.07-14.25 288.5-14.05 288.92-13.85 289.07-13.8L289.07-13.8Q290.12-13.3 291.4-12.95 292.67-12.6 292.97-12.5L292.97-12.5Q295.67-11.85 296.57-11.25L296.57-11.25ZM303.87-16.85Q303.47-16.85 303.14-17.18 302.82-17.5 302.82-17.95L302.82-17.95Q302.82-19.1 303.82-20.1L303.82-20.1Q304.12-20.25 305.02-20.6 305.92-20.95 306.62-20.95L306.62-20.95Q308.52-20.95 309.72-19.93 310.92-18.9 310.92-17L310.92-17Q310.92-16.45 310.72-14.65L310.72-14.65Q310.52-12.55 310.52-11.4L310.52-11.4Q310.52-7.9 311.47-5.75L311.47-5.75Q311.82-5.05 312.57-4.65 313.32-4.25 313.92-4.25L313.92-4.25Q315.37-4.25 316.27-4.75 317.17-5.25 318.22-6.35L318.22-6.35Q319.27-7.45 319.59-8.85 319.92-10.25 320.07-12.7L320.07-12.7Q320.17-14.3 320.27-15.05L320.27-15.05Q320.52-17.45 320.52-19.15L320.52-19.15Q320.52-20.25 321.12-20.98 321.72-21.7 322.77-21.7L322.77-21.7Q323.37-21.7 324.14-21.33 324.92-20.95 325.17-20.45L325.17-20.45Q325.47-19.95 325.47-18.8L325.47-18.8Q325.47-18.2 325.32-17.65L325.32-17.65Q324.97-16.4 324.97-14.65L324.97-14.65 325.02-12.05Q325.02-8.5 325.52-6.8L325.52-6.8Q325.77-6 326.22-5.18 326.67-4.35 327.07-3.8L327.07-3.8Q328.07-2.7 328.37-2.27 328.67-1.85 328.67-1.45L328.67-1.45Q328.67-0.85 328.09-0.33 327.52 0.2 326.87 0.2L326.87 0.2Q325.02 0.2 323.67-1.05 322.32-2.3 321.67-4.3L321.67-4.3Q319.97-2.35 318.52-1.15L318.52-1.15Q317.52-0.45 316.07-0.13 314.62 0.2 313.17 0.2L313.17 0.2Q311.22 0.2 309.22-1.4 307.22-3 306.52-5.1L306.52-5.1Q306.47-5.2 306.24-5.9 306.02-6.6 306.02-8L306.02-8Q306.02-9.85 306.22-12.65L306.22-12.65Q306.37-14.45 306.37-15.95L306.37-15.95Q306.37-16.4 306.04-16.7 305.72-17 305.32-17L305.32-17Q305.02-17 304.64-16.93 304.27-16.85 303.87-16.85L303.87-16.85ZM338.06-7.75Q338.06-5.85 338.64-4.83 339.21-3.8 340.12-3.8L340.12-3.8Q340.62-3.8 341.06-3.88 341.51-3.95 341.96-3.95L341.96-3.95Q342.46-3.95 342.84-3.45 343.21-2.95 343.21-2.35L343.21-2.35Q343.21-1.15 342.09-0.48 340.96 0.2 339.06 0.2L339.06 0.2Q337.71 0.2 336.34-0.63 334.96-1.45 334.06-3.23 333.17-5 333.17-7.65L333.17-7.65Q333.17-13.35 333.37-17.3L333.37-17.3Q333.62-22 333.62-29.15L333.62-29.15Q333.62-31.4 333.87-32.3L333.87-32.3Q334.17-33 334.84-33.38 335.51-33.75 336.26-33.75L336.26-33.75Q337.01-33.75 337.59-33.5 338.17-33.25 338.37-32.7L338.37-32.7Q338.56-32.1 338.64-31.53 338.71-30.95 338.71-29.9L338.71-29.9Q338.71-27.85 338.56-25.95L338.56-25.95Q338.46-23.65 338.46-22.6L338.46-22.6Q338.06-13.8 338.06-7.75L338.06-7.75ZM349.01-17.1L346.61-17.3Q345.91-17.4 345.49-17.9 345.06-18.4 345.06-19.1L345.06-19.1Q345.06-19.45 345.24-19.85 345.41-20.25 345.76-20.55L345.76-20.55Q346.41-21.2 349.26-21.2L349.26-21.2Q349.66-23.15 349.66-25.15L349.66-25.15Q349.66-25.9 349.61-26.45 349.56-27 349.56-27.3L349.56-27.3Q349.56-28.4 350.39-28.95 351.21-29.5 352.26-29.5L352.26-29.5Q353.56-29.5 354.04-28.85 354.51-28.2 354.51-26.45L354.51-26.45Q354.51-23.85 354.06-21.35L354.06-21.35Q354.86-21.35 356.26-21.45L356.26-21.45Q358.16-21.55 359.01-21.55L359.01-21.55Q359.86-21.55 360.49-21.13 361.11-20.7 361.11-19.95L361.11-19.95Q361.11-18 359.36-17.65L359.36-17.65Q357.51-17.2 353.61-17.1L353.61-17.1Q353.46-15.15 353.46-12.85L353.46-12.85Q353.46-9.25 353.91-6.95L353.91-6.95Q354.21-5.35 354.94-4.63 355.66-3.9 357.11-3.9L357.11-3.9Q357.96-3.9 358.86-4.35L358.86-4.35Q359.46-4.7 359.96-4.7L359.96-4.7Q360.66-4.7 360.99-4.25 361.31-3.8 361.31-3.05L361.31-3.05Q361.31-1.65 359.81-0.73 358.31 0.2 355.96 0.2L355.96 0.2Q354.51 0.2 353.04-0.5 351.56-1.2 350.56-2.25L350.56-2.25Q350.41-2.4 350.01-3.4 349.61-4.4 349.31-5.55L349.31-5.55Q348.81-7.9 348.81-12.15L348.81-12.15Q348.81-14 349.01-17.1L349.01-17.1ZM367.96-32.1Q369.71-31.95 371.01-31.18 372.31-30.4 372.31-28.85L372.31-28.85Q372.31-27.7 371.24-27.03 370.16-26.35 368.66-26.35L368.66-26.35Q367.21-26.35 366.66-27.1 366.11-27.85 366.11-28.65L366.11-28.65Q366.11-30.15 366.44-31.15 366.76-32.15 367.96-32.1L367.96-32.1ZM371.96-18.95L371.96-9.95 371.96-8.5Q371.96-6.55 372.08-4.83 372.21-3.1 372.41-1.35L372.41-1.35Q372.36-0.85 371.66-0.33 370.96 0.2 370.41 0.2L370.41 0.2Q369.46 0.2 368.49-0.18 367.51-0.55 367.31-1.1L367.31-1.1Q367.01-2.7 367.01-3.95L367.01-3.95Q367.01-8.05 366.76-13.15L366.76-13.15Q366.56-17.65 366.56-19.45L366.56-19.45Q366.56-20.35 367.46-21 368.36-21.65 369.36-21.65L369.36-21.65Q370.81-21.65 371.38-21 371.96-20.35 371.96-18.95L371.96-18.95ZM401.01-3.85Q401.26-3.75 401.81-3.6 402.36-3.45 402.61-3.3 402.86-3.15 402.86-2.85L402.86-2.85Q402.91-1.65 401.98-0.88 401.06-0.1 399.81-0.1L399.81-0.1Q397.86-0.1 396.76-1.15 395.66-2.2 395.16-4.35L395.16-4.35Q394.96-5.2 394.96-6.7L394.96-6.7Q394.96-7.55 395.06-9.45L395.06-9.45Q395.16-11.45 395.16-12.65L395.16-12.65Q395.16-14.4 394.18-15.73 393.21-17.05 391.46-17.05L391.46-17.05Q390.41-17.05 389.26-16.43 388.11-15.8 387.66-14.9L387.66-14.9Q386.91-13.45 386.61-11.75L386.61-11.75Q386.06-8.75 386.06-5.5L386.06-5.5Q386.06-3.95 386.11-3.1L386.11-3.1Q386.11-2.9 386.13-2.33 386.16-1.75 386.03-1.28 385.91-0.8 385.61-0.4L385.61-0.4Q385.36-0.15 384.83 0.03 384.31 0.2 383.86 0.2L383.86 0.2Q383.16 0.2 382.11-0.4 381.06-1 380.91-1.75L380.91-1.75 380.86-2.6Q380.86-3.05 380.96-3.65L380.96-3.65Q381.56-7.15 381.56-9.75L381.56-9.75Q381.56-10.9 381.51-11.55L381.51-11.55 381.46-13.9Q381.46-15.1 380.86-16.23 380.26-17.35 379.46-17.35L379.46-17.35Q379.21-17.35 378.76-17.18 378.31-17 378.01-17L378.01-17Q377.51-17 376.93-17.5 376.36-18 376.36-18.55L376.36-18.55Q376.36-19.6 377.06-20.25L377.06-20.25Q377.81-20.85 378.53-21.2 379.26-21.55 380.21-21.55L380.21-21.55Q381.01-21.55 381.51-21.4 382.01-21.25 382.86-20.75L382.86-20.75Q383.31-20.5 383.91-19.65 384.51-18.8 384.91-17.25L384.91-17.25Q386.21-19.65 388.13-20.63 390.06-21.6 393.06-21.6L393.06-21.6Q394.21-21.6 395.53-20.85 396.86-20.1 397.81-19.1L397.81-19.1Q398.71-18 399.31-16.38 399.91-14.75 399.91-13.45L399.91-13.45Q399.91-12.7 399.81-11L399.81-11Q399.66-9.65 399.66-8.15L399.66-8.15Q399.66-4.65 401.01-3.85L401.01-3.85ZM424.5-0.1Q425.86 0.85 426.33 2 426.81 3.15 426.81 5.2L426.81 5.2Q426.81 6.2 426.23 7.2 425.66 8.2 425.06 8.65L425.06 8.65Q420.31 11.25 415.56 11.25L415.56 11.25Q413.2 11.25 411.5 10.65 409.81 10.05 408.31 9.05L408.31 9.05Q407.31 8.3 406.68 6.98 406.06 5.65 406.06 4.35L406.06 4.35Q406.06 2.55 407.18 1.2 408.31-0.15 410.2-0.75L410.2-0.75Q409.86-1.5 409.86-2.5L409.86-2.5Q409.86-3.45 411.25-5.35L411.25-5.35Q408.86-6.15 407.48-8.2 406.11-10.25 406.11-13L406.11-13Q406.11-14.7 406.91-16.03 407.7-17.35 409.31-19.1L409.31-19.1Q410.41-20.3 412.11-20.85 413.81-21.4 416.36-21.4L416.36-21.4Q418.16-21.4 420.81-20.6L420.81-20.6Q423.95-22.8 426.36-22.8L426.36-22.8Q426.95-22.8 427.73-22.5 428.5-22.2 428.91-21.9L428.91-21.9Q429.2-21.35 429.2-20.05L429.2-20.05Q429.2-19.55 428.78-19.07 428.36-18.6 427.7-18.6L427.7-18.6 426.5-18.65Q425.61-18.75 425.11-18.75L425.11-18.75Q424.56-18.75 423.45-18.65L423.45-18.65Q424.5-17.4 425.08-16 425.66-14.6 425.66-12.35L425.66-12.35Q425.66-10.65 424.41-8.8 423.16-6.95 421.45-5.9L421.45-5.9Q418.86-4.5 415.41-4.45L415.41-4.45Q415-4.05 414.73-3.73 414.45-3.4 414.45-3.2L414.45-3.2Q414.45-2.65 415.41-2.35 416.36-2.05 418.31-1.9L418.31-1.9Q419.81-1.8 421.63-1.28 423.45-0.75 424.5-0.1L424.5-0.1ZM415.7-8.55Q418-8.55 419.41-9.8 420.81-11.05 420.81-13.35L420.81-13.35Q420.81-15.1 419.56-16.2 418.31-17.3 416.36-17.3L416.36-17.3Q415.11-17.3 413.68-16.88 412.25-16.45 411.66-15.55L411.66-15.55Q411.36-15.15 411.06-14.03 410.75-12.9 410.75-12.3L410.75-12.3Q410.75-11.45 411.48-10.58 412.2-9.7 413.38-9.13 414.56-8.55 415.7-8.55L415.7-8.55ZM418.86 2.3Q416.11 2.05 414.98 1.83 413.86 1.6 413.16 1.3L413.16 1.3Q410.61 2.65 410.61 4.25L410.61 4.25Q410.61 5.75 412.16 6.53 413.7 7.3 415.7 7.3L415.7 7.3Q416.61 7.3 418.16 7.1 419.7 6.9 420.75 6.4L420.75 6.4Q421.45 6.05 421.81 5.73 422.16 5.4 422.16 4.55L422.16 4.55Q422.16 3.5 421.06 2.95 419.95 2.4 418.86 2.3L418.86 2.3Z" opacity="1" transform="matrix(1,0,0,1,0,0)" fill="#0023ff" class="undefined-text-0" data-fill-palette-color="primary" id="text-0"></path></svg></g></svg></g><g transform="matrix(1,0,0,1,75.54432,51.552841425659054)"><svg viewBox="0 0 244.43135999999998 21.148987433748584" height="21.148987433748584" width="244.43135999999998"><g transform="matrix(1,0,0,1,0,0)"><svg width="244.43135999999998" viewBox="2.200000047683716 -40.81999969482422 646.6599731445312 55.959999084472656" height="21.148987433748584" data-palette-color="#0023ff"><path d="M19.24-33.96L20.61-34.13Q20.85-34.13 20.85-33.59L20.85-33.59 21.48-28.39Q21.58-27.91 21.58-27.77 21.58-27.64 21.2-27.64 20.83-27.64 20.73-27.73 20.63-27.83 20.53-28.06 20.43-28.3 20.3-28.59 20.17-28.88 20.02-29.17L20.02-29.17Q19.51-30.3 18.41-31.4L18.41-31.4Q15.72-33.98 12.35-33.98L12.35-33.98Q10.33-33.98 8.52-32.67 6.71-31.35 6.71-29.55 6.71-27.76 7.39-26.44 8.06-25.12 9.16-24 10.25-22.88 11.67-21.85 13.09-20.83 14.55-19.78L14.55-19.78Q18.43-17.07 20.07-15.14L20.07-15.14Q22.63-12.16 22.85-8.45L22.85-8.45Q22.85-4.3 19.67-1.82 16.48 0.66 12.26 0.66L12.26 0.66Q9.55 0.66 7.95 0.11 6.35-0.44 5.74-0.68 5.13-0.93 4.85-0.93 4.57-0.93 4.49-0.9L4.49-0.9 3.3-0.66Q2.98-0.66 2.91-1.17L2.91-1.17Q2.2-7.23 2.2-7.6 2.2-7.98 2.26-8.12 2.32-8.25 2.59-8.25L2.59-8.25Q3.27-8.25 3.83-6.3L3.83-6.3Q6.4-0.81 12.35-0.81L12.35-0.81Q15.09-0.81 17.03-2.47 18.97-4.13 18.97-6.79L18.97-6.79Q18.97-11.04 13.89-14.7L13.89-14.7Q12.45-15.72 9.74-17.55 7.03-19.38 5.42-21.22L5.42-21.22Q2.91-24.05 2.91-27.53 2.91-31.01 5.68-33.23 8.45-35.45 12.04-35.45L12.04-35.45Q13.89-35.45 16.13-34.81 18.36-34.18 19.24-33.96L19.24-33.96ZM26.88-10.97Q26.88-15.77 30.28-19.23 33.69-22.68 38.45-22.68 43.21-22.68 46.73-19.32 50.24-15.97 50.24-11.04 50.24-6.1 46.91-2.72 43.58 0.66 38.55 0.66 33.52 0.66 30.2-2.76 26.88-6.18 26.88-10.97ZM32.96-4.69L32.96-4.69Q35.35-0.66 39.48-0.66L39.48-0.66Q42.67-0.66 44.37-3.22 46.07-5.79 46.07-9.52 46.07-13.26 43.69-17.19 41.31-21.12 37.28-21.12L37.28-21.12Q34.32-21.12 32.63-18.57 30.93-16.02 30.93-12.1 30.93-8.18 32.96-4.69ZM67.13-0.39L67.13-0.39Q67.13 0 66.69 0L66.69 0 53.29 0Q53.05-0.05 53.05-0.34L53.05-0.34Q53.05-0.78 54.19-0.93L54.19-0.93Q56.83-1.32 56.83-3.71L56.83-3.71 56.83-18.51Q56.83-18.77 56.54-18.77L56.54-18.77 53.88-18.77Q53.58-18.77 53.32-18.96 53.05-19.14 53.05-19.45 53.05-19.75 53.34-19.92L53.34-19.92Q53.75-20.17 55.29-20.58 56.83-21 56.83-21.95L56.83-21.95 56.83-22.75Q56.83-31.54 60.64-36.28L60.64-36.28Q62.76-38.94 67.11-40.38L67.11-40.38Q68.43-40.82 69.72-40.82 71.02-40.82 72.75-40.15 74.48-39.48 74.48-38.53L74.48-38.53Q74.48-38.33 74.42-38.18 74.36-38.04 74.29-37.82L74.29-37.82 73.29-35.67Q73.09-35.28 72.82-35.28L72.82-35.28Q72.75-35.28 71.77-36.05 70.8-36.82 69.71-37.46 68.62-38.11 67.16-38.11L67.16-38.11Q64.3-38.11 62.84-36.65 61.37-35.18 61.01-33.34 60.64-31.49 60.64-29.27L60.64-29.27 60.64-22.17Q60.64-21.97 60.88-21.97L60.88-21.97 65.64-21.97Q66.33-21.97 66.54-21.84 66.74-21.7 66.94-20.96 67.13-20.21 67.13-19.59 67.13-18.97 67.01-18.87 66.89-18.77 66.5-18.77L66.5-18.77 60.96-18.77Q60.64-18.77 60.64-18.53L60.64-18.53 60.64-4.2Q60.64-0.71 66.69-0.71L66.69-0.71Q67.13-0.66 67.13-0.39ZM82.29-18.77L74.94-18.77Q74.8-18.77 74.8-18.55L74.8-18.55 74.8-5.08Q74.8-3.61 75.44-2.78 76.09-1.95 77.09-1.95 78.09-1.95 78.84-2.28 79.58-2.61 80.13-3 80.68-3.39 81.12-3.72 81.56-4.05 81.9-4.05 82.24-4.05 82.24-3.88L82.24-3.88Q82.24-3.3 82.12-3.13L82.12-3.13Q79.19 0.66 76.47 0.66 73.75 0.66 72.37-1.06 70.99-2.78 70.99-5.18L70.99-5.18 70.99-18.77 69.16-18.77Q68.47-18.77 68.44-19.21 68.4-19.65 68.57-19.78L68.57-19.78Q69.87-20.61 72.14-22.75L72.14-22.75Q72.38-23.02 72.8-23.56 73.21-24.1 74-25.02 74.8-25.95 75.21-25.95 75.63-25.95 75.63-25.61L75.63-25.61Q75.63-25.56 74.8-22.41L74.8-22.41Q74.8-21.97 75.19-21.95L75.19-21.95 81.41-21.95Q82.49-21.95 82.49-18.92L82.49-18.92Q82.49-18.77 82.29-18.77L82.29-18.77ZM112.93-21.97L122.18-21.97Q122.45-21.9 122.45-21.63 122.45-21.36 122.38-21.24 122.3-21.12 121.3-20.97 120.3-20.83 119.88-20.4 119.45-19.97 119.12-19.43 118.79-18.9 118.54-18.32 118.3-17.75 118.08-17.29L118.08-17.29 111.42-0.05Q111.12 0.66 110.88 0.66L110.88 0.66 108.95 0.66Q108.71 0.66 108.41-0.1L108.41-0.1 102.99-14.77 97.3-0.05Q97.01 0.66 96.77 0.66L96.77 0.66 94.84 0.66Q94.59 0.66 94.3-0.1L94.3-0.1 87.83-17.6Q86.93-20.07 84.73-20.78L84.73-20.78Q84.56-20.83 84.32-20.85L84.32-20.85Q83.29-20.95 83.29-21.46 83.29-21.97 83.88-21.97L83.88-21.97 94.74-21.97Q94.94-21.97 94.94-21.59 94.94-21.22 94.67-21.09L94.67-21.09Q94.23-20.92 93.15-20.95L93.15-20.95Q91.37-21 91.37-19.48L91.37-19.48 91.42-18.9 96.38-5.35Q96.87-4.1 97.35-5.42L97.35-5.42Q97.4-5.54 99.39-10.55 101.38-15.55 101.94-17.6L101.94-17.6Q101.04-20.07 98.84-20.78L98.84-20.78Q98.67-20.83 98.43-20.85L98.43-20.85Q97.4-20.95 97.4-21.46 97.4-21.97 97.99-21.97L97.99-21.97 108.85-21.97Q109.05-21.97 109.05-21.59 109.05-21.22 108.78-21.09L108.78-21.09Q108.34-20.92 107.27-20.95L107.27-20.95Q105.48-21 105.48-19.48L105.48-19.48 105.53-18.9 110.49-5.35Q110.98-4.1 111.46-5.42L111.46-5.42Q111.51-5.54 112.1-7.01L112.1-7.01Q115.1-14.53 115.65-16.3 116.2-18.07 116.2-18.73 116.2-19.38 115.49-20.1 114.78-20.83 113.59-20.83 112.39-20.83 112.39-21.56L112.39-21.56Q112.39-21.97 112.93-21.97L112.93-21.97ZM139.98-4.03Q139.98-3.39 140.58-3.02 141.17-2.64 141.96-2.64 142.74-2.64 143.26-3.04 143.79-3.44 143.98-3.44 144.18-3.44 144.18-2.92 144.18-2.39 143.69-2.03L143.69-2.03Q140.03 0.66 138.73 0.66L138.73 0.66Q137.17 0.66 136.19-2.59L136.19-2.59Q136.12-2.83 136.07-2.81L136.07-2.81Q133.04-0.54 132.26-0.07L132.26-0.07Q130.26 1.07 128.25 0.29 126.23-0.49 125.33-2.29L125.33-2.29Q124.89-3.22 124.89-4.27L124.89-4.27Q124.89-6.35 126.43-7.57 127.97-8.79 132.29-9.91L132.29-9.91Q133.75-10.3 134.9-10.91 136.05-11.52 136.11-11.69 136.17-11.87 136.17-12.01L136.17-12.01 136.17-16.7Q136.17-19.46 134.02-20.58L134.02-20.58Q133.31-20.95 132.32-20.95 131.34-20.95 130.32-20.17 129.31-19.38 129.31-17.94L129.31-17.94 129.43-16.99Q129.28-16.7 127.67-16.02 126.06-15.33 125.82-15.28L125.82-15.28Q125.43-15.28 125.43-16.22 125.43-17.16 125.99-18.31 126.55-19.46 127.58-20.41L127.58-20.41Q129.97-22.63 133.04-22.63 136.12-22.63 138.05-20.94 139.98-19.24 139.98-16.89L139.98-16.89 139.98-4.03ZM128.72-4.74Q128.72-3.56 129.63-2.7 130.53-1.83 131.69-1.83 132.85-1.83 134.51-2.82 136.17-3.81 136.17-4.86L136.17-4.86 136.17-9.81Q136.17-10.08 136.05-10.08 135.93-10.08 135.88-10.06L135.88-10.06 130.21-7.42Q129.33-6.79 129.03-6.35 128.72-5.91 128.72-4.74ZM161.34-17.5L161.34-17.5Q161.04-17.55 160.48-17.82L160.48-17.82Q158.46-18.75 157.31-18.75 156.16-18.75 154.9-17.32 153.65-15.89 153.65-14.75L153.65-14.75 153.65-3.71Q153.65-1.88 155.77-1.27L155.77-1.27Q156.7-1.03 157.5-0.92 158.31-0.81 158.54-0.71 158.77-0.61 158.77-0.33 158.77-0.05 158.53 0L158.53 0 146.3 0Q146.05-0.05 146.05-0.34L146.05-0.34Q146.05-0.78 147.2-0.93L147.2-0.93Q149.84-1.32 149.84-3.71L149.84-3.71 149.84-16.63Q149.84-17.65 148.72-18.04L148.72-18.04Q148.23-18.21 147.67-18.32 147.1-18.43 146.77-18.53 146.44-18.63 146.36-18.71 146.27-18.8 146.27-19.08 146.27-19.36 146.64-19.56L146.64-19.56 152.87-22.49Q153.16-22.63 153.23-22.63L153.23-22.63Q153.65-22.63 153.65-22.05L153.65-22.05 153.65-18.09Q153.65-17.8 153.79-17.8L153.79-17.8Q153.99-17.8 154.79-18.95L154.79-18.95Q157.11-22.19 158.63-22.19L158.63-22.19Q159.48-22.19 161.25-21.51 163.02-20.83 163.02-20.36L163.02-20.36Q163.02-19.8 162.46-18.65 161.9-17.5 161.34-17.5ZM182.82-12.87L168.66-12.87Q168.24-12.87 168.24-11.08L168.24-11.08Q168.24-7.3 170.49-4.74 172.74-2.17 176.07-2.17 179.4-2.17 182.48-5.05L182.48-5.05Q182.53-5.1 182.6-5.1L182.6-5.1 182.72-5.1Q182.87-5.1 183-4.87 183.14-4.64 183.26-4.57L183.26-4.57Q180.43-1.12 176.59 0.2L176.59 0.2Q175.28 0.66 173.62 0.66 171.96 0.66 170.25-0.26 168.54-1.17 167.32-2.66L167.32-2.66Q164.73-5.76 164.73-10.39 164.73-15.01 167.55-18.82 170.37-22.63 175.3-22.63L175.3-22.63Q178.84-22.63 181.09-19.47 183.33-16.31 183.33-13.92L183.33-13.92Q183.33-12.87 182.82-12.87L182.82-12.87ZM168.93-15.5L168.93-15.21Q168.93-14.75 169.37-14.75L169.37-14.75 178.57-14.75Q179.21-14.75 179.21-15.5L179.21-15.5Q179.21-17.26 177.63-19.1 176.06-20.95 174.18-20.95L174.18-20.95Q172.35-20.95 170.84-19.29 169.34-17.63 168.93-15.5L168.93-15.5ZM217.21 0L199.59 0Q199.39 0 199.39-0.2L199.39-0.2 199.39-0.78Q199.39-0.98 199.73-0.98L199.73-0.98Q200.88-0.98 202.27-1.22L202.27-1.22Q206.74-1.98 206.74-4.3L206.74-4.3 206.74-30.05Q206.5-33.18 203.88-33.45L203.88-33.45Q203.1-33.54 202.15-33.54L202.15-33.54 200.76-33.54Q200.56-33.54 200.56-33.74L200.56-33.74 200.56-34.35Q200.56-34.55 200.76-34.55L200.76-34.55 201.83-34.57 206.03-34.59 214.72-34.86Q228.69-34.86 228.69-26.61L228.69-26.61Q228.69-23.12 225.08-20.8L225.08-20.8Q224.51-20.43 224.11-20.26 223.71-20.09 223.66-20.07L223.66-20.07Q226.88-18.26 228.73-16.02 230.57-13.77 230.57-10.64L230.57-10.64Q230.57-3.98 224.27-1.37L224.27-1.37Q221.02 0 217.21 0L217.21 0ZM215.82-19.04L211.94-19.04Q211.62-19.04 211.62-18.77L211.62-18.77 211.62-5.4Q211.62-3.66 213.25-2.61 214.87-1.56 216.75-1.56L216.75-1.56Q220.36-1.56 222.9-4.14 225.44-6.71 225.44-10.49 225.44-14.26 222.72-16.65 220-19.04 215.82-19.04L215.82-19.04ZM211.57-32.2L211.57-21.02Q211.57-20.56 212.14-20.56L212.14-20.56 218.14-20.56Q220.49-20.56 222.08-22.29 223.68-24.02 223.68-26.17L223.68-26.17Q223.68-30 221.51-31.73 219.34-33.45 215.72-33.45L215.72-33.45Q214.63-33.37 214.2-33.37 213.77-33.37 213.31-33.39 212.84-33.4 212.38-33.33 211.92-33.25 211.75-33.01 211.57-32.76 211.57-32.2L211.57-32.2ZM234.96-10.97Q234.96-15.77 238.37-19.23 241.77-22.68 246.53-22.68 251.29-22.68 254.81-19.32 258.32-15.97 258.32-11.04 258.32-6.1 254.99-2.72 251.66 0.66 246.63 0.66 241.6 0.66 238.28-2.76 234.96-6.18 234.96-10.97ZM241.04-4.69L241.04-4.69Q243.43-0.66 247.56-0.66L247.56-0.66Q250.76-0.66 252.45-3.22 254.15-5.79 254.15-9.52 254.15-13.26 251.77-17.19 249.39-21.12 245.36-21.12L245.36-21.12Q242.41-21.12 240.71-18.57 239.01-16.02 239.01-12.1 239.01-8.18 241.04-4.69ZM278.56 0.05L278.56-2.15Q278.44-2.56 278.24-2.43 278.05-2.29 276.66-1.59L276.66-1.59Q272.09 0.68 269.04 0.68 265.99 0.68 264.65-1.27L264.65-1.27Q264.16-2 264.16-3.08L264.16-3.08 264.16-17.97Q264.08-18.68 263.52-19.19L263.52-19.19Q262.77-19.82 261.95-19.87 261.13-19.92 261.13-20.37 261.13-20.83 261.52-20.92L261.52-20.92 267.11-22.53Q267.4-22.63 267.68-22.63 267.97-22.63 267.97-22.22L267.97-22.22 267.97-5.83Q267.97-4.13 269.48-3.2 270.99-2.27 273.35-2.27 275.7-2.27 277.58-3.71L277.58-3.71Q278.17-4.17 278.56-4.74L278.56-4.74 278.56-17.97Q278.49-18.68 277.93-19.19L277.93-19.19Q277.17-19.82 276.35-19.87 275.53-19.92 275.53-20.37 275.53-20.83 275.92-20.92L275.92-20.92 281.52-22.53Q281.81-22.63 282.09-22.63 282.37-22.63 282.37-22.14L282.37-22.14 282.37-4.81Q282.49-3.74 282.98-3.27 283.47-2.81 284.57-2.81L284.57-2.81 285.98-2.91Q286.13-2.91 286.13-2.62 286.13-2.34 285.76-2.17L285.76-2.17 279.27 0.51Q278.98 0.66 278.77 0.66 278.56 0.66 278.56 0.05L278.56 0.05ZM302.58-18.77L295.23-18.77Q295.09-18.77 295.09-18.55L295.09-18.55 295.09-5.08Q295.09-3.61 295.73-2.78 296.38-1.95 297.38-1.95 298.38-1.95 299.13-2.28 299.87-2.61 300.42-3 300.97-3.39 301.41-3.72 301.85-4.05 302.19-4.05 302.53-4.05 302.53-3.88L302.53-3.88Q302.53-3.3 302.41-3.13L302.41-3.13Q299.48 0.66 296.76 0.66 294.04 0.66 292.66-1.06 291.28-2.78 291.28-5.18L291.28-5.18 291.28-18.77 289.45-18.77Q288.76-18.77 288.73-19.21 288.69-19.65 288.86-19.78L288.86-19.78Q290.16-20.61 292.43-22.75L292.43-22.75Q292.67-23.02 293.09-23.56 293.5-24.1 294.29-25.02 295.09-25.95 295.5-25.95 295.92-25.95 295.92-25.61L295.92-25.61Q295.92-25.56 295.09-22.41L295.09-22.41Q295.09-21.97 295.48-21.95L295.48-21.95 301.7-21.95Q302.78-21.95 302.78-18.92L302.78-18.92Q302.78-18.77 302.58-18.77L302.58-18.77ZM315.98 0L305.09 0Q304.85-0.05 304.85-0.34L304.85-0.34Q304.85-0.78 306-0.93L306-0.93Q308.63-1.32 308.63-3.71L308.63-3.71 308.63-16.63Q308.63-17.65 307.51-18.04L307.51-18.04Q307.02-18.21 306.46-18.32 305.9-18.43 305.57-18.53 305.24-18.63 305.16-18.71 305.07-18.8 305.07-19.08 305.07-19.36 305.44-19.56L305.44-19.56 311.66-22.49Q311.95-22.63 312.03-22.63L312.03-22.63Q312.44-22.63 312.44-22.05L312.44-22.05 312.44-3.71Q312.44-1.32 315.08-0.93L315.08-0.93Q316.23-0.78 316.23-0.42 316.23-0.05 315.98 0L315.98 0ZM310.18-29.49Q309.17-29.49 308.4-30.13 307.63-30.76 307.63-31.9 307.63-33.03 308.37-33.69 309.1-34.35 310.11-34.35 311.12-34.35 311.82-33.57 312.52-32.79 312.52-31.88 312.52-30.98 311.86-30.24 311.2-29.49 310.18-29.49ZM339.83-22.83L340.08-22.83Q340.22-22.83 340.22-22.68L340.22-22.68 340.22 11.43Q340.22 13.82 342.86 14.21L342.86 14.21Q344.01 14.36 344.01 14.72 344.01 15.09 343.76 15.14L343.76 15.14 330.68 15.14Q330.43 15.09 330.43 14.81 330.43 14.53 330.67 14.43 330.9 14.33 331.4 14.27 331.9 14.21 332.53 14.11L332.53 14.11Q336.42 13.53 336.42 11.43L336.42 11.43 336.42-2.44Q336.42-2.59 336.31-2.59 336.2-2.59 334.46-1.59 332.73-0.59 331.32 0.04 329.92 0.66 328.38 0.66L328.38 0.66Q325.7 0.66 323.82-1.07 321.94-2.81 320.91-5.4 319.89-7.98 319.89-10.45L319.89-10.45Q319.89-15.43 323.33-19.03 326.77-22.63 331.63-22.63L331.63-22.63Q334.63-22.63 337.51-21.07L337.51-21.07 337.68-21.07Q338.15-21.07 338.69-21.67 339.22-22.27 339.45-22.55 339.69-22.83 339.83-22.83L339.83-22.83ZM323.57-10.85Q323.57-6.67 325.88-4.36 328.19-2.05 330.65-2.05 333.12-2.05 335.27-3.32L335.27-3.32Q335.93-3.71 336.42-4.2L336.42-4.2 336.42-15.28Q336.42-18.24 334.76-19.73 333.09-21.22 331.09-21.22L331.09-21.22Q327.53-21.22 325.55-18.13 323.57-15.04 323.57-10.85ZM362.61 0.05L362.61-2.15Q362.49-2.56 362.29-2.43 362.1-2.29 360.7-1.59L360.7-1.59Q356.14 0.68 353.09 0.68 350.04 0.68 348.69-1.27L348.69-1.27Q348.2-2 348.2-3.08L348.2-3.08 348.2-17.97Q348.13-18.68 347.57-19.19L347.57-19.19Q346.81-19.82 346-19.87 345.18-19.92 345.18-20.37 345.18-20.83 345.57-20.92L345.57-20.92 351.16-22.53Q351.45-22.63 351.73-22.63 352.01-22.63 352.01-22.22L352.01-22.22 352.01-5.83Q352.01-4.13 353.53-3.2 355.04-2.27 357.4-2.27 359.75-2.27 361.63-3.71L361.63-3.71Q362.22-4.17 362.61-4.74L362.61-4.74 362.61-17.97Q362.54-18.68 361.97-19.19L361.97-19.19Q361.22-19.82 360.4-19.87 359.58-19.92 359.58-20.37 359.58-20.83 359.97-20.92L359.97-20.92 365.56-22.53Q365.86-22.63 366.14-22.63 366.42-22.63 366.42-22.14L366.42-22.14 366.42-4.81Q366.54-3.74 367.03-3.27 367.52-2.81 368.61-2.81L368.61-2.81 370.03-2.91Q370.18-2.91 370.18-2.62 370.18-2.34 369.81-2.17L369.81-2.17 363.32 0.51Q363.02 0.66 362.82 0.66 362.61 0.66 362.61 0.05L362.61 0.05ZM391.44-12.87L377.28-12.87Q376.86-12.87 376.86-11.08L376.86-11.08Q376.86-7.3 379.11-4.74 381.36-2.17 384.69-2.17 388.02-2.17 391.1-5.05L391.1-5.05Q391.15-5.1 391.22-5.1L391.22-5.1 391.34-5.1Q391.49-5.1 391.62-4.87 391.76-4.64 391.88-4.57L391.88-4.57Q389.05-1.12 385.21 0.2L385.21 0.2Q383.9 0.66 382.24 0.66 380.58 0.66 378.87-0.26 377.16-1.17 375.94-2.66L375.94-2.66Q373.35-5.76 373.35-10.39 373.35-15.01 376.17-18.82 378.99-22.63 383.92-22.63L383.92-22.63Q387.46-22.63 389.71-19.47 391.95-16.31 391.95-13.92L391.95-13.92Q391.95-12.87 391.44-12.87L391.44-12.87ZM377.55-15.5L377.55-15.21Q377.55-14.75 377.99-14.75L377.99-14.75 387.19-14.75Q387.83-14.75 387.83-15.5L387.83-15.5Q387.83-17.26 386.25-19.1 384.68-20.95 382.8-20.95L382.8-20.95Q380.97-20.95 379.46-19.29 377.96-17.63 377.55-15.5L377.55-15.5ZM419.14-19.75L428.71-19.75Q431.99-19.75 431.99-22.95L431.99-22.95Q431.99-23.14 432.18-23.14L432.18-23.14 432.77-23.14Q432.96-23.14 432.96-22.95L432.96-22.95 432.96-13.87Q432.96-13.67 432.77-13.67L432.77-13.67 432.18-13.67Q431.99-13.67 431.99-13.87L431.99-13.87Q431.99-16.11 430.72-16.97L430.72-16.97Q430.03-17.43 428.76-17.43L428.76-17.43 419.14-17.43Q418.56-17.43 418.56-16.77L418.56-16.77 418.56-4.22Q418.56-2.56 420.55-1.77 422.54-0.98 423.06-0.98 423.59-0.98 423.59-0.78L423.59-0.78 423.59-0.2Q423.59 0 423.39 0L423.39 0 410.06 0Q409.87 0 409.87-0.2L409.87-0.2 409.87-0.78Q409.87-0.98 410.28-0.98 410.7-0.98 411.58-1.37 412.46-1.76 413.13-2.53 413.8-3.3 413.8-4.39L413.8-4.39 413.8-30.76Q413.8-32.35 412.11-33.03L412.11-33.03Q411.14-33.45 410.18-33.45L410.18-33.45 410.09-33.45Q409.89-33.45 409.89-33.64L409.89-33.64 409.89-34.23Q409.89-34.42 410.09-34.42L410.09-34.42 433.11-34.42Q433.4-34.38 433.55-34.29 433.7-34.2 433.7-33.86L433.7-33.86 433.7-27.95Q433.7-27.66 433.61-27.59 433.52-27.51 433.3-27.51L433.3-27.51 433.01-27.51Q432.96-27.54 432.68-28.85 432.4-30.15 431.82-30.86L431.82-30.86Q430.81-31.93 429.54-32.06L429.54-32.06Q429.03-32.1 428.3-32.1L428.3-32.1 419.05-32.1Q418.56-32.1 418.56-31.62L418.56-31.62 418.56-20.31Q418.56-19.75 419.14-19.75L419.14-19.75ZM438.09-10.97Q438.09-15.77 441.49-19.23 444.9-22.68 449.66-22.68 454.42-22.68 457.94-19.32 461.45-15.97 461.45-11.04 461.45-6.1 458.12-2.72 454.79 0.66 449.76 0.66 444.73 0.66 441.41-2.76 438.09-6.18 438.09-10.97ZM444.17-4.69L444.17-4.69Q446.56-0.66 450.68-0.66L450.68-0.66Q453.88-0.66 455.58-3.22 457.28-5.79 457.28-9.52 457.28-13.26 454.9-17.19 452.52-21.12 448.49-21.12L448.49-21.12Q445.53-21.12 443.84-18.57 442.14-16.02 442.14-12.1 442.14-8.18 444.17-4.69ZM479.83-17.5L479.83-17.5Q479.54-17.55 478.98-17.82L478.98-17.82Q476.95-18.75 475.8-18.75 474.66-18.75 473.4-17.32 472.14-15.89 472.14-14.75L472.14-14.75 472.14-3.71Q472.14-1.88 474.27-1.27L474.27-1.27Q475.19-1.03 476-0.92 476.81-0.81 477.04-0.71 477.27-0.61 477.27-0.33 477.27-0.05 477.03 0L477.03 0 464.79 0Q464.55-0.05 464.55-0.34L464.55-0.34Q464.55-0.78 465.7-0.93L465.7-0.93Q468.33-1.32 468.33-3.71L468.33-3.71 468.33-16.63Q468.33-17.65 467.21-18.04L467.21-18.04Q466.72-18.21 466.16-18.32 465.6-18.43 465.27-18.53 464.94-18.63 464.85-18.71 464.77-18.8 464.77-19.08 464.77-19.36 465.14-19.56L465.14-19.56 471.36-22.49Q471.65-22.63 471.73-22.63L471.73-22.63Q472.14-22.63 472.14-22.05L472.14-22.05 472.14-18.09Q472.14-17.8 472.29-17.8L472.29-17.8Q472.48-17.8 473.29-18.95L473.29-18.95Q475.61-22.19 477.12-22.19L477.12-22.19Q477.98-22.19 479.75-21.51 481.52-20.83 481.52-20.36L481.52-20.36Q481.52-19.8 480.96-18.65 480.39-17.5 479.83-17.5ZM495.11-0.2L495.11-0.2 495.11-0.88Q495.11-1.07 495.31-1.07L495.31-1.07 495.84-1.07Q496.87-1.15 497.94-1.16 499.02-1.17 499.9-1.42L499.9-1.42Q501.9-2 501.9-4.35L501.9-4.35 501.9-30.08Q501.9-32.5 499.04-33.15L499.04-33.15Q498.24-33.33 497.41-33.45L497.41-33.45 496.89-33.45Q496.7-33.45 496.7-33.64L496.7-33.64 496.7-34.23Q496.7-34.42 496.89-34.42L496.89-34.42 520.11-34.42Q520.55-34.42 520.75-34.27 520.94-34.11 520.99-33.57L520.99-33.57 521.43-26.49Q521.43-26.25 521.06-26.25 520.7-26.25 520.53-26.46L520.53-26.46Q520.38-26.71 520.15-28.25 519.92-29.79 519.31-30.81 518.7-31.84 517.16-32.1L517.16-32.1 506.98-32.1Q506.66-32.1 506.66-31.79L506.66-31.79 506.66-19.17Q506.66-18.92 506.9-18.92L506.9-18.92 515.35-18.92Q518.62-18.92 518.62-22.73L518.62-22.73Q518.62-22.92 518.82-22.92L518.82-22.92 519.4-22.92Q519.6-22.92 519.6-22.73L519.6-22.73 519.6-12.28Q519.6-12.08 519.4-12.08L519.4-12.08 518.82-12.08Q518.62-12.08 518.62-12.28L518.62-12.28Q518.62-15.89 516.52-16.46L516.52-16.46Q515.94-16.6 515.28-16.6L515.28-16.6 506.9-16.6Q506.66-16.6 506.66-16.36L506.66-16.36 506.66-4.47Q506.66-2.64 508.34-2.39L508.34-2.39Q508.83-2.32 509.37-2.32L509.37-2.32 517.5-2.32Q520.01-2.32 521.4-4.54L521.4-4.54Q522.41-6.13 522.63-8.18L522.63-8.18Q522.7-8.86 523.36-8.86L523.36-8.86Q523.65-8.86 523.65-8.54L523.65-8.54 522.85-0.34Q522.7 0 522.5 0L522.5 0 495.31 0Q495.11 0 495.11-0.2ZM540.79-21.97L548.28-21.97Q548.48-21.97 548.48-21.58 548.48-21.19 548.28-21.09L548.28-21.09Q546.4-20.58 545.28-19.38L545.28-19.38Q544.86-18.95 544.38-18.36L544.38-18.36 539.66-12.7Q539.57-12.52 539.57-12.38L539.57-12.38Q539.57-12.08 541.69-9.51 543.81-6.93 547.55-2.22L547.55-2.22Q547.82-1.88 548.62-1.54 549.43-1.2 549.72-0.99 550.02-0.78 550.02-0.44 550.02-0.1 549.72 0L549.72 0 540.1 0Q539.86 0 539.86-0.39 539.86-0.78 540.26-0.84 540.67-0.9 541.18-0.98L541.18-0.98Q542.47-1.17 542.47-2L542.47-2Q542.47-2.56 541.86-3.25L541.86-3.25 537.66-8.52Q537.47-8.79 537.36-8.94 537.25-9.08 536.93-9.08 536.61-9.08 536.43-8.83 536.25-8.57 536.05-8.37L536.05-8.37 532.22-3.76Q531.71-3.17 531.71-2.39 531.71-1.61 532.72-1.16 533.73-0.71 534.51-0.71L534.51-0.71Q534.68-0.71 534.68-0.34L534.68-0.34Q534.68 0 534.51 0L534.51 0 526.68 0Q526.29 0 526.29-0.44L526.29-0.44Q526.29-0.78 527.64-1.42 529-2.05 529.29-2.39L529.29-2.39 536.05-10.52Q536.03-10.57 535.97-10.64 535.9-10.72 535.68-10.99 535.46-11.25 535-11.83 534.54-12.4 532.55-14.86 530.56-17.31 528.36-20.04L528.36-20.04Q528.07-20.36 527.14-20.76 526.21-21.17 526.21-21.48L526.21-21.48Q526.26-21.97 526.8-21.97L526.8-21.97 535.88-21.97Q536.08-21.97 536.06-21.67 536.05-21.36 535.68-21.28 535.32-21.19 534.88-21.04L534.88-21.04Q533.71-20.7 533.71-19.85L533.71-19.85Q533.71-19.29 533.93-19.07L533.93-19.07 537.71-14.38Q537.91-14.16 538.11-13.9 538.32-13.65 538.48-13.65 538.64-13.65 538.83-13.89L538.83-13.89 542.42-18.07Q543.03-18.77 543.03-19.48 543.03-20.19 542.64-20.47 542.25-20.75 541.78-20.89 541.3-21.02 540.91-21.14 540.52-21.26 540.52-21.62 540.52-21.97 540.79-21.97L540.79-21.97ZM570.72-2.56L570.72-2.56Q567.35 0.66 563.15 0.66L563.15 0.66Q561.63 0.66 559.02 0.1L559.02 0.1Q558.61 0.1 558.57 0.39 558.53 0.68 558.51 1L558.51 1 558.51 11.43Q558.51 13.26 560.63 13.87L560.63 13.87Q561.56 14.11 562.37 14.22 563.17 14.33 563.4 14.43 563.64 14.53 563.64 14.81 563.64 15.09 563.39 15.14L563.39 15.14 551.16 15.14Q550.92 15.09 550.92 14.79L550.92 14.79Q550.92 14.36 552.06 14.21L552.06 14.21Q554.7 13.82 554.7 11.43L554.7 11.43 554.7-17.85Q554.7-18.87 553.58-19.26L553.58-19.26Q553.09-19.43 552.53-19.54 551.97-19.65 551.64-19.75 551.31-19.85 551.22-19.93 551.14-20.02 551.14-20.3 551.14-20.58 551.5-20.78L551.5-20.78 557.73-23.75Q557.92-23.85 558.12-23.85L558.12-23.85Q558.51-23.85 558.51-23.27L558.51-23.27 558.51-20.17Q558.51-19.9 558.79-19.9 559.07-19.9 560.15-20.61L560.15-20.61Q563.25-22.61 566.59-22.61L566.59-22.61Q568.93-22.61 570.89-20.7L570.89-20.7Q573.45-18.21 574.31-13.77L574.31-13.77Q574.55-12.5 574.55-11.07 574.55-9.64 574.09-8.06L574.09-8.06Q573.16-4.91 570.72-2.56ZM563.73-20.07L563.73-20.07Q560.41-20.07 558.51-18.16L558.51-18.16 558.51-4.44Q558.51-3.22 558.92-2.86L558.92-2.86Q560-1.93 562.22-1.42L562.22-1.42Q566.61-0.42 569.06-3.52L569.06-3.52Q570.79-5.74 570.79-8.89L570.79-8.89Q570.79-15.01 568.03-18.07L568.03-18.07Q566.37-19.92 563.73-20.07ZM597.03-12.87L582.87-12.87Q582.46-12.87 582.46-11.08L582.46-11.08Q582.46-7.3 584.7-4.74 586.95-2.17 590.28-2.17 593.61-2.17 596.69-5.05L596.69-5.05Q596.74-5.1 596.81-5.1L596.81-5.1 596.93-5.1Q597.08-5.1 597.22-4.87 597.35-4.64 597.47-4.57L597.47-4.57Q594.64-1.12 590.81 0.2L590.81 0.2Q589.49 0.66 587.83 0.66 586.17 0.66 584.46-0.26 582.75-1.17 581.53-2.66L581.53-2.66Q578.94-5.76 578.94-10.39 578.94-15.01 581.76-18.82 584.58-22.63 589.51-22.63L589.51-22.63Q593.05-22.63 595.3-19.47 597.54-16.31 597.54-13.92L597.54-13.92Q597.54-12.87 597.03-12.87L597.03-12.87ZM583.14-15.5L583.14-15.21Q583.14-14.75 583.58-14.75L583.58-14.75 592.78-14.75Q593.42-14.75 593.42-15.5L593.42-15.5Q593.42-17.26 591.84-19.1 590.27-20.95 588.39-20.95L588.39-20.95Q586.56-20.95 585.06-19.29 583.56-17.63 583.14-15.5L583.14-15.5ZM616.49-17.5L616.49-17.5Q616.19-17.55 615.63-17.82L615.63-17.82Q613.61-18.75 612.46-18.75 611.31-18.75 610.05-17.32 608.8-15.89 608.8-14.75L608.8-14.75 608.8-3.71Q608.8-1.88 610.92-1.27L610.92-1.27Q611.85-1.03 612.65-0.92 613.46-0.81 613.69-0.71 613.92-0.61 613.92-0.33 613.92-0.05 613.68 0L613.68 0 601.45 0Q601.2-0.05 601.2-0.34L601.2-0.34Q601.2-0.78 602.35-0.93L602.35-0.93Q604.99-1.32 604.99-3.71L604.99-3.71 604.99-16.63Q604.99-17.65 603.87-18.04L603.87-18.04Q603.38-18.21 602.82-18.32 602.25-18.43 601.92-18.53 601.6-18.63 601.51-18.71 601.42-18.8 601.42-19.08 601.42-19.36 601.79-19.56L601.79-19.56 608.02-22.49Q608.31-22.63 608.38-22.63L608.38-22.63Q608.8-22.63 608.8-22.05L608.8-22.05 608.8-18.09Q608.8-17.8 608.94-17.8L608.94-17.8Q609.14-17.8 609.94-18.95L609.94-18.95Q612.26-22.19 613.78-22.19L613.78-22.19Q614.63-22.19 616.4-21.51 618.17-20.83 618.17-20.36L618.17-20.36Q618.17-19.8 617.61-18.65 617.05-17.5 616.49-17.5ZM633.16-18.77L625.81-18.77Q625.66-18.77 625.66-18.55L625.66-18.55 625.66-5.08Q625.66-3.61 626.31-2.78 626.96-1.95 627.96-1.95 628.96-1.95 629.71-2.28 630.45-2.61 631-3 631.55-3.39 631.99-3.72 632.43-4.05 632.77-4.05 633.11-4.05 633.11-3.88L633.11-3.88Q633.11-3.3 632.99-3.13L632.99-3.13Q630.06 0.66 627.34 0.66 624.62 0.66 623.24-1.06 621.86-2.78 621.86-5.18L621.86-5.18 621.86-18.77 620.03-18.77Q619.34-18.77 619.31-19.21 619.27-19.65 619.44-19.78L619.44-19.78Q620.73-20.61 623-22.75L623-22.75Q623.25-23.02 623.66-23.56 624.08-24.1 624.87-25.02 625.66-25.95 626.08-25.95 626.49-25.95 626.49-25.61L626.49-25.61Q626.49-25.56 625.66-22.41L625.66-22.41Q625.66-21.97 626.06-21.95L626.06-21.95 632.28-21.95Q633.36-21.95 633.36-18.92L633.36-18.92Q633.36-18.77 633.16-18.77L633.16-18.77ZM647.51-18.95L647.51-16.7Q647.51-16.16 647.11-16.16 646.71-16.16 646.49-16.75L646.49-16.75Q645.9-18.36 644.74-19.6 643.58-20.85 641.87-20.85L641.87-20.85Q639.63-20.85 638.85-18.6L638.85-18.6Q638.6-17.85 638.6-17.04 638.6-16.24 639.63-15.25 640.65-14.26 643-12.89 645.34-11.52 646.41-10.57L646.41-10.57Q648.86-8.4 648.86-5.54 648.86-2.69 646.76-1.01 644.66 0.66 641.87 0.66L641.87 0.66Q640.38 0.66 639.18 0.26 637.97-0.15 637.78-0.15 637.6-0.15 637.2 0.26 636.8 0.66 636.55 0.66L636.55 0.66 636.14 0.66Q635.99 0.66 635.77-1.98 635.55-4.61 635.55-5.1 635.55-5.59 635.64-5.64 635.72-5.69 635.92-5.69 636.11-5.69 636.25-5.57 636.38-5.44 636.48-5.26 636.58-5.08 636.64-4.88 636.7-4.69 636.94-4.15L636.94-4.15Q638.6-0.61 642.07-0.61L642.07-0.61Q643.61-0.61 644.53-1.75 645.46-2.88 645.46-4.27 645.46-5.66 644.73-6.62 644-7.57 642.91-8.35 641.82-9.13 640.55-9.86L640.55-9.86Q635.62-12.74 635.62-16.24L635.62-16.24Q635.62-18.85 637.87-20.74 640.12-22.63 642.48-22.63 644.85-22.63 645.99-22.12 647.12-21.61 647.32-21.25 647.51-20.9 647.51-18.95L647.51-18.95Z" opacity="1" transform="matrix(1,0,0,1,0,0)" fill="#0023ff" class="undefined-text-1" data-fill-palette-color="secondary" id="text-1"></path></svg></g></svg></g></svg></g></svg></g><g transform="matrix(1,0,0,1,132.86608850353886,0)"><svg viewBox="0 0 131.7654229929222 100.47392748370137" height="100.47392748370137" width="131.7654229929222"><g><svg xmlns="http://www.w3.org/2000/svg" xmlns:xlink="http://www.w3.org/1999/xlink" version="1.1" x="0" y="0" viewBox="9.928915977478027 17.500003814697266 85.37466430664062 65.09999084472656" enable-background="new 0 0 100 100" xml:space="preserve" height="100.47392748370137" width="131.7654229929222" class="icon-icon-0" data-fill-palette-color="accent" id="icon-0"><g fill="#0023ff" data-fill-palette-color="accent"><g fill="#0023ff" data-fill-palette-color="accent"><g fill="#0023ff" data-fill-palette-color="accent"><path d="M52.3 63.8c0-10.3 8.5-18.8 18.9-18.8 7.8 0 14.6 4.7 17.5 11.9 1.4-2.2 2.2-4.9 2.2-7.6 0-7.2-5.4-13.3-12.5-14l-1.7-0.1-0.4-1.9c-1.1-5.9-6.3-10.1-12.3-10.1-2.6 0-5.2 0.8-7.1 2.3l-1.3 0.9-1.3-0.8c-3.6-2.3-7.8-3.5-12-3.5-11.3 0-20.6 8.2-20.6 18.2 0 0.4 0 0.8 0.1 1.1l0.2 1.6-1.4 0.7c-3.2 1.8-5.4 5-5.8 8.7-0.6 6.1 3.9 11.5 9.9 12.2 2.3 0.3 4.6-0.3 6.7-1.5l1.4-0.8 1.2 1c4.4 3.6 10.6 5.6 17.2 5.6 0.6 0 1.2 0 1.8 0C52.5 67.1 52.3 65.5 52.3 63.8zM89.9 62.5c0.1 0.4 0.1 0.8 0.1 1.3 0 10.4-8.4 18.8-18.8 18.8-6.7 0-12.9-3.6-16.3-9.3-1.2 0.1-2.5 0.2-3.7 0.2-7.1 0-13.7-2-18.9-5.8-2.6 1.2-5.4 1.7-8.1 1.4-4.2-0.4-7.9-2.4-10.6-5.7C10.9 60.1 9.6 56 10 51.9c0.5-4.8 3-8.9 6.9-11.5v-0.1c0-12.6 11.3-22.8 25.2-22.8 4.7 0 9.3 1.2 13.3 3.4 2.6-1.5 5.5-2.3 8.6-2.3 7.6 0 14.3 5 16.4 12.3 8.7 1.7 14.9 9.4 14.9 18.4C95.4 54.1 93.4 59 89.9 62.5zM71.1 49.3c-8 0-14.5 6.5-14.5 14.5 0 1.7 0.3 3.4 0.9 4.9 0.4 1 0.8 1.9 1.4 3 2.7 4.1 7.2 6.6 12.2 6.6 7.8 0 14.1-6.1 14.5-13.9v-0.7c0-1-0.1-2-0.3-3C84 54.2 78 49.3 71.1 49.3z" fill="#0023ff" data-fill-palette-color="accent"></path><path d="M70.7 61.6v-2.7c-0.7 0.1-1.2 0.6-1.2 1.5C69.5 61.1 70.1 61.5 70.7 61.6zM72 68.7c0.7 0 1.2-0.7 1.2-1.5 0-1-0.5-1.4-1.2-1.6V68.7zM65.8 60.9c0-2.9 2.2-4.8 4.9-5v-1c0-0.4 0.2-0.6 0.6-0.6 0.5 0 0.6 0.2 0.6 0.6v1c1.4 0 3.9 0.5 3.9 2.3 0 0.9-0.6 1.6-1.5 1.6s-1.5-0.9-2.5-0.9V62c2.5 0.7 5 1.8 5 4.9 0 3.4-2.8 5-5 5.2v1c0 0.4-0.2 0.6-0.6 0.6-0.5 0-0.6-0.3-0.6-0.6v-0.9c-1.5-0.1-5-0.5-5-2.6 0-1 0.7-1.9 1.6-1.9 0.7 0 1.9 1 3.4 1v-3.4C67 64.2 65.8 62.9 65.8 60.9z" fill="#0023ff" data-fill-palette-color="accent"></path></g></g></g></svg></g></svg></g><g></g></svg></g></svg><rect width="395.52" height="204.29160087161006" fill="none" stroke="none" visibility="hidden"></rect></g></svg></g></svg>